<svg width="130" height="32" xmlns="http://www.w3.org/2000/svg">

 <g>
  <title>background</title>
  <rect fill="none" id="canvas_background" height="34" width="132" y="-1" x="-1"/>
 </g>
 <g>
  <title>Layer 1</title>
  <text stroke="null" font-weight="bold" xml:space="preserve" text-anchor="start" font-family="Helvetica, Arial, sans-serif" font-size="22" id="svg_5" y="23.57023" x="2.06306" stroke-opacity="null" stroke-width="0" fill="#252f3f">Can I Afford</text>
  <path id="svg_8" d="m19.04462,16l-0.01531,-0.01531l0,-0.03656l-0.01312,0l0,0.02344l-0.03063,-0.03063l-0.05906,0.05906l0.01406,-0.00033l0,0.05971l0.08937,0l0,-0.05938l0.01469,0zm-0.05906,0.05083l-0.02917,0l0,-0.035l0.02917,0l0,0.035zm0.02834,-0.015l-0.01917,0l0,-0.02021l0.01917,0l0,0.02021z" fill-opacity="null" stroke-opacity="null" stroke-width="null" stroke="null" fill="#252F3F"/>
  <path id="svg_22" d="m39.82156,32.15237c-0.00002,-0.01104 -0.00896,-0.01999 -0.02,-0.02l0,0l-0.06128,0c-0.00253,-0.00811 -0.01006,-0.01404 -0.01902,-0.01405l-0.01438,0c-0.01104,0.00001 -0.01999,0.00896 -0.02,0.02l0,0.07094c0.00002,0.01103 0.00896,0.01997 0.02,0.01999l0.09469,0c0.01102,-0.00002 0.01997,-0.00896 0.01999,-0.01999l0,-0.05688l0,0zm-0.11468,-0.02406l0.01438,0c0.00523,-0.00002 0.00958,0.00417 0.00991,0.00938l0.00029,0.00468l0.07011,0c0.00546,0.00001 0.00998,0.00453 0.00999,0.01l0,0.00248c-0.00296,-0.00172 -0.00634,-0.00278 -0.01,-0.00279l-0.09469,0c-0.00366,0 -0.00705,0.00107 -0.01,0.00279l0,-0.01654c0.00002,-0.00547 0.00453,-0.00999 0.01,-0.01zm0.09468,0.09094l-0.09468,0c-0.00546,-0.00001 -0.00998,-0.00454 -0.01,-0.01l0,-0.03719l0,0c0.00001,-0.00547 0.00453,-0.00999 0.01,-0.01l0.09469,0c0.00546,0.00001 0.00995,0.00451 0.01,0.00995l0,0.03724c-0.00002,0.00547 -0.00454,0.00999 -0.01001,0.01001z" fill-opacity="null" stroke-opacity="null" stroke-width="null" stroke="null" fill="#e0e7e5"/>
 </g>
</svg>